<svg width="337" height="47" viewBox="0 0 337 47" fill="none" xmlns="http://www.w3.org/2000/svg">
<g clip-path="url(#clip0_9493_2514)">
<path d="M95.415 10.5838L89.3755 32.0334L82.6107 10.5838H79.4897L72.6405 31.9994L66.5505 10.5838H63.3789L70.5543 33.6703C70.8354 34.5709 71.6677 35.1883 72.6068 35.1883H72.6574C73.5852 35.1883 74.4062 34.5879 74.6986 33.6986L80.963 14.5486L87.2387 33.6986C87.5311 34.5879 88.3521 35.1826 89.2799 35.1826C90.219 35.1826 91.0513 34.5652 91.3324 33.6646L98.5078 10.5781H95.4262L95.415 10.5838Z" fill="#F2F2F2"/>
<path d="M122.975 21.63C122.975 19.5286 122.503 17.6085 121.569 15.881C120.624 14.1535 119.28 12.7771 117.543 11.7633C115.788 10.7381 113.764 10.2227 111.425 10.2227C109.085 10.2227 107.022 10.7381 105.211 11.7633C103.395 12.7771 101.978 14.2554 100.96 16.1699C99.9531 18.0956 99.4414 20.3386 99.4414 22.8931C99.4414 25.4475 99.9531 27.6792 100.982 29.5823C102.017 31.4967 103.434 32.9637 105.262 34.0002C107.078 35.0424 109.142 35.5521 111.43 35.5521C114.388 35.5521 116.84 34.7988 118.803 33.2752C120.754 31.7572 122.025 29.8088 122.621 27.4016H119.314C118.864 29.0782 117.948 30.4205 116.564 31.4061C115.17 32.3973 113.466 32.8957 111.43 32.8957C109.89 32.8957 108.461 32.5559 107.14 31.8819C105.824 31.2078 104.767 30.2053 103.957 28.8743C103.164 27.5602 102.714 25.9686 102.613 24.1052H122.891C122.953 23.5274 122.975 22.7005 122.975 21.6243V21.63ZM102.613 21.545C102.799 18.8036 103.71 16.6853 105.346 15.1843C106.988 13.6834 108.962 12.9301 111.301 12.9301C112.842 12.9301 114.287 13.2699 115.592 13.9213C116.907 14.5839 117.942 15.5638 118.701 16.8496C119.472 18.1523 119.832 19.7042 119.809 21.545H102.613Z" fill="#F2F2F2"/>
<path d="M143.789 24.4233C142.957 23.4604 141.962 22.7354 140.804 22.2313C139.662 21.7442 138.194 21.2571 136.4 20.7814C135.056 20.3792 134.039 20.0564 133.353 19.8071C132.667 19.5579 132.082 19.2068 131.609 18.7423C131.126 18.2892 130.89 17.7398 130.89 17.0771C130.89 16.2388 131.249 15.5591 131.969 15.0494C132.678 14.5509 133.713 14.2847 135.051 14.2847C136.389 14.2847 137.514 14.6246 138.318 15.2759C139.128 15.9386 139.572 16.8279 139.662 17.9437H144.757C144.633 15.4742 143.722 13.5371 142.007 12.1097C140.292 10.6824 138.031 9.96875 135.22 9.96875C133.341 9.96875 131.677 10.2803 130.232 10.909C128.792 11.549 127.673 12.4099 126.897 13.5031C126.115 14.6076 125.727 15.8083 125.727 17.1337C125.727 18.748 126.149 20.062 127.01 21.0532C127.853 22.0444 128.86 22.7808 130.029 23.2565C131.188 23.7436 132.7 24.2307 134.545 24.7462C136.457 25.2842 137.851 25.7883 138.734 26.2358C139.617 26.6833 140.05 27.3743 140.05 28.3145C140.05 29.1811 139.651 29.8948 138.869 30.4555C138.076 31.0049 136.968 31.2824 135.534 31.2824C134.101 31.2824 133.01 30.9313 132.104 30.2289C131.199 29.5153 130.698 28.6373 130.614 27.5895H125.328C125.39 29.0905 125.862 30.4555 126.756 31.6733C127.651 32.8854 128.871 33.8539 130.4 34.5506C131.941 35.2529 133.684 35.6154 135.624 35.6154C137.564 35.6154 139.195 35.2926 140.612 34.6639C142.029 34.0352 143.126 33.1629 143.908 32.0471C144.678 30.9426 145.066 29.6795 145.066 28.2635C145.043 26.6719 144.605 25.3975 143.773 24.429L143.789 24.4233Z" fill="#F2F2F2"/>
<path d="M168.521 14.7804C167.66 13.1888 166.508 11.988 165.029 11.1724C163.55 10.3568 161.868 9.96028 159.996 9.96028C158.416 9.96028 156.965 10.2378 155.632 10.8099C154.299 11.3876 153.209 12.1862 152.337 13.2397V1.84375H147.242V35.1935H152.337V21.3166C152.337 19.085 152.894 17.3858 154.013 16.1964C155.132 15.0069 156.65 14.4179 158.562 14.4179C160.474 14.4179 161.97 15.0069 163.077 16.1964C164.185 17.3858 164.731 19.0907 164.731 21.3166V35.1935H169.792V20.5407C169.792 18.2864 169.37 16.3719 168.521 14.7804Z" fill="#F2F2F2"/>
<path d="M220.188 16.0328C219.182 14.1183 217.776 12.6287 216.01 11.5525C214.233 10.4877 212.271 9.96094 210.117 9.96094C208.239 9.96094 206.563 10.3518 205.067 11.1277C203.577 11.915 202.396 12.8666 201.524 14.022V10.3631H196.43V47.0036H201.524V31.5861C202.458 32.7359 203.65 33.6875 205.106 34.4521C206.574 35.2168 208.239 35.6019 210.117 35.6019C212.265 35.6019 214.233 35.0525 216.01 33.948C217.776 32.8606 219.182 31.3199 220.188 29.3545C221.206 27.3891 221.718 25.1575 221.718 22.6653C221.718 20.1732 221.206 17.9585 220.188 16.0271V16.0328ZM215.459 27.1739C214.762 28.4653 213.845 29.4395 212.687 30.1192C211.545 30.7932 210.314 31.133 208.992 31.133C207.671 31.133 206.495 30.8102 205.348 30.1418C204.207 29.4791 203.273 28.5163 202.576 27.2362C201.867 25.9561 201.519 24.4665 201.519 22.7559C201.519 21.0454 201.867 19.5501 202.576 18.287C203.273 17.0353 204.207 16.0724 205.348 15.4041C206.49 14.7414 207.71 14.4129 208.992 14.4129C210.274 14.4129 211.54 14.7357 212.687 15.3757C213.845 16.0271 214.762 16.9787 215.459 18.2191C216.168 19.4708 216.516 20.9491 216.516 22.6653C216.516 24.3815 216.168 25.8712 215.459 27.1739Z" fill="#F2F2F2"/>
<path d="M248.195 22.1686C248.195 19.7671 247.7 17.6374 246.677 15.7966C245.659 13.9445 244.242 12.5172 242.426 11.4863C240.609 10.4611 238.534 9.95703 236.212 9.95703C233.889 9.95703 231.651 10.4838 229.784 11.5373C227.917 12.5908 226.478 14.0804 225.443 16.0175C224.408 17.9603 223.902 20.1976 223.902 22.752C223.902 25.3065 224.425 27.5495 225.494 29.4866C226.551 31.4293 228.007 32.9303 229.869 33.9951C231.736 35.0599 233.844 35.598 236.212 35.598C239.097 35.598 241.52 34.8617 243.483 33.4061C245.434 31.9561 246.778 30.0756 247.526 27.7987H242.032C240.89 30.1153 238.95 31.2651 236.212 31.2651C234.3 31.2651 232.692 30.6647 231.376 29.4639C230.06 28.2631 229.334 26.6715 229.188 24.6948H248.021C248.144 23.9415 248.195 23.0919 248.195 22.163V22.1686ZM229.222 20.5431C229.458 18.6286 230.206 17.0994 231.46 15.9722C232.714 14.8451 234.221 14.2843 235.987 14.2843C237.927 14.2843 239.541 14.8621 240.862 16.0005C242.178 17.139 242.853 18.657 242.875 20.5487H229.222V20.5431Z" fill="#F2F2F2"/>
<path d="M281.466 10.5859L275.438 32.0356L268.673 10.5859H265.541L258.691 32.0016L252.612 10.5859H249.43L256.616 33.6781C256.897 34.5787 257.73 35.1961 258.669 35.1961H258.708C259.636 35.1961 260.457 34.5957 260.749 33.7121L267.025 14.5621L273.289 33.7121C273.582 34.6014 274.403 35.2017 275.331 35.2017C276.27 35.2017 277.102 34.59 277.383 33.6838L284.57 10.5916H281.471L281.466 10.5859Z" fill="#F2F2F2"/>
<path d="M309.041 21.63C309.041 19.5286 308.569 17.6085 307.624 15.881C306.69 14.1535 305.346 12.7771 303.598 11.7633C301.854 10.7381 299.819 10.2227 297.491 10.2227C295.163 10.2227 293.088 10.7381 291.277 11.7633C289.449 12.7771 288.032 14.2554 287.026 16.1699C286.008 18.0956 285.496 20.3386 285.496 22.8931C285.496 25.4475 286.019 27.6792 287.048 29.5823C288.066 31.4967 289.5 32.9637 291.311 34.0002C293.138 35.0424 295.191 35.5521 297.491 35.5521C300.449 35.5521 302.9 34.7988 304.852 33.2752C306.803 31.7572 308.085 29.8088 308.681 27.4016H305.375C304.925 29.0782 304.008 30.4205 302.613 31.4061C301.236 32.3973 299.515 32.8957 297.491 32.8957C295.939 32.8957 294.505 32.5559 293.2 31.8819C291.884 31.2078 290.827 30.2053 290.017 28.8743C289.207 27.5602 288.763 25.9686 288.673 24.1052H308.951C309.002 23.5274 309.035 22.7005 309.035 21.6243L309.041 21.63ZM288.673 21.545C288.848 18.8036 289.77 16.6853 291.406 15.1843C293.048 13.6834 295.022 12.9301 297.35 12.9301C298.902 12.9301 300.336 13.2699 301.652 13.9213C302.956 14.5839 304.002 15.5638 304.762 16.8496C305.521 18.1523 305.892 19.7042 305.858 21.545H288.679H288.673Z" fill="#F2F2F2"/>
<path d="M335.51 16.1964C334.503 14.2933 333.126 12.8149 331.371 11.7784C329.606 10.7532 327.615 10.2265 325.377 10.2265C323.139 10.2265 321.086 10.7646 319.399 11.8521C317.707 12.9282 316.464 14.3329 315.66 16.0321V1.84375H312.578V35.1935H315.66V29.7843C316.441 31.5005 317.673 32.8882 319.354 33.9531C321.047 35.0179 323.049 35.556 325.382 35.556C327.581 35.556 329.572 35.0292 331.349 33.9757C333.126 32.9222 334.509 31.4326 335.516 29.5181C336.511 27.5924 337.006 25.3721 337.006 22.8459C337.006 20.3198 336.511 18.1108 335.516 16.1964H335.51ZM332.648 28.1418C331.855 29.6597 330.77 30.8209 329.392 31.6082C328.025 32.4068 326.468 32.8089 324.741 32.8089C323.015 32.8089 321.547 32.3954 320.153 31.5798C318.775 30.7812 317.667 29.6144 316.869 28.1135C316.059 26.6125 315.648 24.868 315.648 22.8912C315.648 20.9145 316.059 19.1586 316.869 17.6577C317.662 16.1567 318.769 15.0013 320.153 14.1913C321.547 13.3757 323.077 12.9792 324.741 12.9792C326.406 12.9792 328.025 13.37 329.392 14.146C330.77 14.9333 331.855 16.0604 332.648 17.5501C333.429 19.0397 333.829 20.8069 333.829 22.8459C333.829 24.885 333.429 26.6295 332.648 28.1418Z" fill="#F2F2F2"/>
<path opacity="0.64" d="M25.7656 12.2783L15.3343 22.785L12.1852 19.6132L9.85156 17.2626L20.6652 6.38202C21.7336 5.29453 23.4769 5.29453 24.5565 6.38202L25.4282 7.25995L25.7599 7.58846C27.0364 8.88552 27.0364 10.9812 25.7599 12.2783H25.7656Z" fill="#969AAA"/>
<path d="M25.7664 37.9758L22.6117 41.1477L20.1037 43.6738C21.4926 42.2748 21.4926 40.0092 20.1037 38.6215L7.52994 25.9511L4.37526 22.7793L0.961899 19.3355C-0.325841 18.0385 -0.325841 15.9428 0.961899 14.6457L14.5422 0.972795C15.83 -0.324265 17.9106 -0.324265 19.1927 0.972795L22.6117 4.41652L24.563 6.38193C23.4833 5.29444 21.7401 5.29444 20.6716 6.38193L9.85799 17.2625L12.1917 19.6131L15.3407 22.7849L25.772 33.2917C27.0485 34.5774 27.0485 36.6787 25.772 37.9815L25.7664 37.9758Z" fill="url(#paint0_linear_9493_2514)"/>
<path d="M20.102 43.674L19.191 44.586C17.9032 45.883 15.8226 45.883 14.5405 44.586L0.965805 30.913C-0.321935 29.6273 -0.321935 27.5259 0.965805 26.2289L4.37916 22.7852L7.53384 25.957L20.1076 38.6274C21.4965 40.0151 21.4965 42.2807 20.1076 43.6797L20.102 43.674Z" fill="url(#paint1_linear_9493_2514)"/>
<path opacity="0.64" d="M29.815 33.2802L40.2463 22.7734L43.3953 25.9453L45.729 28.2959L34.9154 39.1764C33.847 40.2639 32.1037 40.2639 31.024 39.1764L30.1524 38.2985L29.8207 37.97C28.5442 36.6729 28.5442 34.5772 29.8207 33.2802H29.815Z" fill="#969AAA"/>
<path d="M29.8167 7.57691L32.9714 4.40506L35.4794 1.87891C34.0905 3.27792 34.0905 5.54352 35.4794 6.93121L48.0532 19.6016L51.2079 22.7735L54.6212 26.2172C55.909 27.5142 55.909 29.6099 54.6212 30.907L41.0465 44.5799C39.7588 45.877 37.6781 45.877 36.396 44.5799L32.9771 41.1362L31.0258 39.1708C32.1054 40.2583 33.8487 40.2583 34.9171 39.1708L45.7307 28.2902L43.3971 25.9396L40.248 22.7678L29.8167 12.261C28.5403 10.9753 28.5403 8.87397 29.8167 7.57124V7.57691Z" fill="url(#paint2_linear_9493_2514)"/>
<path d="M35.477 1.8847L36.388 0.972795C37.6757 -0.324265 39.7564 -0.324265 41.0385 0.972795L54.6132 14.6457C55.9009 15.9315 55.9009 18.0328 54.6132 19.3299L51.1998 22.7736L48.0452 19.6017L35.4714 6.93134C34.0824 5.54365 34.0824 3.27805 35.4714 1.87904L35.477 1.8847Z" fill="url(#paint3_linear_9493_2514)"/>
<path d="M185.211 34.4351C183.653 35.2111 181.961 35.6019 180.15 35.6019C178.57 35.6019 177.147 35.2791 175.871 34.6391C174.594 33.999 173.593 33.1098 172.885 31.9883C172.171 30.8612 171.816 29.6037 171.816 28.1934C171.816 25.9221 172.637 24.036 174.291 22.5351C175.938 21.0398 178.413 20.2921 181.713 20.2921H188.669C188.608 18.5249 188.079 17.1033 187.084 16.0214C186.088 14.9453 184.756 14.4072 183.097 14.4072C181.578 14.4072 180.324 14.8263 179.329 15.6646C178.334 16.5029 177.704 17.6697 177.434 19.165H172.441C172.795 16.4406 173.948 14.2259 175.893 12.5211C177.839 10.8162 180.313 9.96094 183.316 9.96094C185.279 9.96094 187.056 10.3857 188.641 11.241C190.233 12.0906 191.498 13.3254 192.432 14.9453C193.365 16.5652 193.837 18.4626 193.837 20.6489V35.1545H188.664V31.5635C187.922 32.702 186.769 33.6592 185.206 34.4351H185.211ZM184.677 30.3684C185.818 29.8756 186.769 29.128 187.528 28.1254C188.287 27.1229 188.669 25.9051 188.669 24.4608V24.4155H181.713C180.105 24.4155 178.924 24.727 178.171 25.3557C177.417 25.9844 177.029 26.7944 177.029 27.7799C177.029 28.7655 177.4 29.6094 178.148 30.2041C178.891 30.8045 179.914 31.1047 181.224 31.1047C182.383 31.1047 183.535 30.8555 184.683 30.3627L184.677 30.3684Z" fill="#F2F2F2"/>
</g>
<defs>
<linearGradient id="paint0_linear_9493_2514" x1="0.000311241" y1="21.8334" x2="26.728" y2="21.8334" gradientUnits="userSpaceOnUse">
<stop stop-color="#E1E7FF"/>
<stop offset="1" stop-color="#8DC7FF"/>
</linearGradient>
<linearGradient id="paint1_linear_9493_2514" x1="19.7927" y1="43.3229" x2="6.60886" y2="31.206" gradientUnits="userSpaceOnUse">
<stop stop-color="#274E81"/>
<stop offset="1" stop-color="#446EFF"/>
</linearGradient>
<linearGradient id="paint2_linear_9493_2514" x1="28.8608" y1="23.7193" x2="55.5828" y2="23.7193" gradientUnits="userSpaceOnUse">
<stop stop-color="#8DC7FF"/>
<stop offset="0.99" stop-color="#E1E7FF"/>
</linearGradient>
<linearGradient id="paint3_linear_9493_2514" x1="34.5098" y1="1.16537" x2="51.7623" y2="16.8384" gradientUnits="userSpaceOnUse">
<stop stop-color="#274E81"/>
<stop offset="1" stop-color="#446EFF"/>
</linearGradient>
<clipPath id="clip0_9493_2514">
<rect width="337" height="47" fill="white"/>
</clipPath>
</defs>
</svg>
