<svg width="33" height="27" viewBox="0 0 33 27" fill="none" xmlns="http://www.w3.org/2000/svg">
<path opacity="0.64" d="M15.2883 7.23593L9.0976 13.4266L7.22872 11.5577L5.84375 10.1727L12.2613 3.76182C12.8954 3.12106 13.93 3.12106 14.5707 3.76182L15.088 4.2791L15.2849 4.47266C16.0425 5.2369 16.0425 6.47169 15.2849 7.23593H15.2883Z" fill="#969AAA"/>
<path d="M15.29 22.3756L13.4178 24.2445L11.9294 25.733C12.7537 24.9086 12.7537 23.5737 11.9294 22.7561L4.46722 15.2906L2.595 13.4217L0.569272 11.3926C-0.194966 10.6284 -0.194966 9.39362 0.569272 8.62938L8.62881 0.573178C9.39305 -0.191059 10.6278 -0.191059 11.3887 0.573178L13.4178 2.60225L14.5758 3.76028C13.9351 3.11952 12.9005 3.11952 12.2664 3.76028L5.84885 10.1712L7.23383 11.5562L9.1027 13.4251L15.2934 19.6157C16.0509 20.3733 16.0509 21.6114 15.2934 22.379L15.29 22.3756Z" fill="url(#paint0_linear_9298_2032)"/>
<path d="M11.93 25.7337L11.3893 26.271C10.6251 27.0352 9.39028 27.0352 8.62938 26.271L0.573178 18.2148C-0.191059 17.4572 -0.191059 16.2191 0.573178 15.4548L2.59891 13.4258L4.47112 15.2947L11.9333 22.7602C12.7576 23.5778 12.7576 24.9127 11.9333 25.737L11.93 25.7337Z" fill="url(#paint1_linear_9298_2032)"/>
<path opacity="0.64" d="M17.6937 19.6086L23.8844 13.418L25.7533 15.2868L27.1383 16.6718L20.7207 23.0827C20.0866 23.7235 19.052 23.7235 18.4113 23.0827L17.894 22.5655L17.6971 22.3719C16.9395 21.6077 16.9395 20.3729 17.6971 19.6086H17.6937Z" fill="#969AAA"/>
<path d="M17.6932 4.46278L19.5654 2.5939L21.0538 1.10547C20.2295 1.92978 20.2295 3.26469 21.0538 4.08232L28.516 11.5478L30.3882 13.4167L32.4139 15.4458C33.1782 16.21 33.1782 17.4448 32.4139 18.209L24.3577 26.2652C23.5935 27.0295 22.3587 27.0295 21.5978 26.2652L19.5687 24.2362L18.4107 23.0781C19.0514 23.7189 20.086 23.7189 20.7201 23.0781L27.1377 16.6672L25.7527 15.2822L23.8838 13.4134L17.6932 7.22271C16.9356 6.46514 16.9356 5.22701 17.6932 4.45944V4.46278Z" fill="url(#paint2_linear_9298_2032)"/>
<path d="M21.0552 1.11048L21.5958 0.573178C22.36 -0.191059 23.5948 -0.191059 24.3557 0.573178L32.4119 8.62938C33.1762 9.38694 33.1762 10.6251 32.4119 11.3893L30.3862 13.4184L28.514 11.5495L21.0518 4.084C20.2275 3.26637 20.2275 1.93145 21.0518 1.10714L21.0552 1.11048Z" fill="url(#paint3_linear_9298_2032)"/>
<defs>
<linearGradient id="paint0_linear_9298_2032" x1="-0.00140329" y1="12.8644" x2="15.8607" y2="12.8644" gradientUnits="userSpaceOnUse">
<stop stop-color="#E1E7FF"/>
<stop offset="1" stop-color="#8DC7FF"/>
</linearGradient>
<linearGradient id="paint1_linear_9298_2032" x1="11.7464" y1="25.5268" x2="3.97387" y2="18.3316" gradientUnits="userSpaceOnUse">
<stop stop-color="#274E81"/>
<stop offset="1" stop-color="#446EFF"/>
</linearGradient>
<linearGradient id="paint2_linear_9298_2032" x1="17.1258" y1="13.974" x2="32.9846" y2="13.974" gradientUnits="userSpaceOnUse">
<stop stop-color="#8DC7FF"/>
<stop offset="0.99" stop-color="#E1E7FF"/>
</linearGradient>
<linearGradient id="paint3_linear_9298_2032" x1="20.4812" y1="0.686646" x2="30.6532" y2="9.99433" gradientUnits="userSpaceOnUse">
<stop stop-color="#274E81"/>
<stop offset="1" stop-color="#446EFF"/>
</linearGradient>
</defs>
</svg>
